<svg xmlns="http://www.w3.org/2000/svg" xmlns:xlink="http://www.w3.org/1999/xlink" aria-hidden="true" role="img" class="iconify iconify--logos" width="35.93" height="32" preserveAspectRatio="xMidYMid meet" viewBox="0 0 256 228"><path fill="#00D8FF" d="M210.483 73.824a171.49 171.49 0 0 0-8.24-2.597c.465-1.9.893-3.777 1.273-5.621c6.238-30.281 2.16-54.676-11.769-62.708c-13.355-7.7-35.196.329-57.254 19.526a171.23 171.23 0 0 0-6.375 5.848a155.866 155.866 0 0 0-4.241-3.917C100.759 3.829 77.587-4.822 63.673 3.233C50.33 10.957 46.379 33.89 51.986 62.588a170.974 170.974 0 0 0 1.892 8.48c-3.28.932-6.445 1.924-9.474 2.98C17.309 83.498 0 98.307 0 113.668c0 15.865 18.582 31.778 46.812 41.427a145.52 145.52 0 0 0 6.921 2.165a167.467 167.467 0 0 0-2.01 9.138c-5.354 28.2-1.173 50.591 12.134 58.266c13.744 7.926 36.812-.22 59.273-19.855a145.567 145.567 0 0 0 5.342-4.923a168.064 168.064 0 0 0 6.92 6.314c21.758 18.722 43.246 26.282 56.54 18.586c13.731-7.949 18.194-32.003 12.4-61.268a145.016 145.016 0 0 0-1.535-6.842c1.62-.48 3.21-.974 4.76-1.488c29.348-9.723 48.443-25.443 48.443-41.52c0-15.417-17.868-30.326-45.517-39.844Zm-6.365 70.984c-1.4.463-2.836.91-4.3 1.345c-3.24-10.257-7.612-21.163-12.963-32.432c5.106-11 9.31-21.767 12.459-31.957a147.457 147.457 0 0 1 7.354 2.313c18.503 6.363 26.529 15.136 26.529 20.539c-.001 5.893-8.91 15.262-29.079 20.192ZM179.21 143.7c-4.052 7.013-8.4 13.686-12.944 19.878c-8.25.6-16.88.905-25.726.905c-8.95 0-17.68-.309-26.003-.91a261.997 261.997 0 0 1-13.206-20.24a283.854 283.854 0 0 1-11.636-21.16a284.437 284.437 0 0 1 11.357-21.36a261.71 261.71 0 0 1 13.162-20.206c8.365-.614 17.136-.929 26.075-.929c8.889 0 17.563.313 25.83.911a263.695 263.695 0 0 1 13.15 20.09a282.783 282.783 0 0 1 11.538 21.263a284.626 284.626 0 0 1-11.597 21.758Zm16.264-8.093c5.498 11.44 9.95 22.491 13.224 32.838c-10.673 2.834-22.477 4.965-35.131 6.329c4.22-6.307 8.286-12.97 12.16-19.928a309.076 309.076 0 0 0 9.747-19.24ZM128.04 229.828c-7.116-7.572-14.148-16.052-20.896-25.279a338.741 338.741 0 0 0 20.609.885c7.053 0 13.985-.3 20.748-.884a321.16 321.16 0 0 1-20.461 25.278ZM73.104 175.01c-12.458-1.423-24.044-3.589-34.376-6.414c3.173-10.16 7.43-20.875 12.691-31.918a308.333 308.333 0 0 0 9.544 18.903a310.628 310.628 0 0 0 12.141 19.43Zm-1.633-78.634a283.324 283.324 0 0 1-11.773-19.063A278.414 278.414 0 0 1 72.52 58.93c10.58-2.925 22.404-5.144 35.205-6.57c-4.14 6.177-8.138 12.713-11.94 19.519c-3.82 6.843-7.38 13.71-10.689 20.538a307.262 307.262 0 0 0-2.625-5.041Zm56.672-42.61c7.213 7.697 14.346 16.347 21.17 25.756a338.677 338.677 0 0 0-21.036-.887c-7.175 0-14.219.305-21.078.889a322.07 322.07 0 0 1 20.944-25.758ZM185.77 53.1c13.81 7.974 17.472 30.443 11.516 57.31c-.342 1.547-.72 3.12-1.127 4.709a166.23 166.23 0 0 0-10.505-3.19c-3.182-10.397-7.504-21.418-12.834-32.663c5.203-10.877 9.403-21.59 12.95-26.166Zm-67.244-39.1c5.34-.123 14.97 10.456 27.332 26.165c-3.517 5.143-7.16 10.656-10.89 16.483c-7.742.576-15.69.888-23.72.888a292.024 292.024 0 0 1-23.287-.852c11.8-16.2 21.753-28.057 27.586-28.982a9.54 9.54 0 0 1 2.979-.502ZM64.066 10.779c13.073-7.481 34.287.567 55.517 19.159a149.292 149.292 0 0 1 3.833 3.548c-8.563 1.482-17.525 3.563-26.67 6.254c-5.548-11.446-10.094-18.666-13.735-21.436c-3.45-2.628-7.186-4.25-10.595-5.263c-2.64-.786-5.386-1.437-8.35-2.262Zm-8.98 37.487c-4.694 24.488-1.15 45.5 7.87 50.717c1.112.644 2.355 1.16 3.716 1.558a135.465 135.465 0 0 1 1.692-7.412c2.57-9.812 6.256-20.265 10.87-31.072c-4.708-10.55-8.46-20.91-11.095-30.625a83.26 83.26 0 0 0-2.398 2.072c-4.05 3.647-7.645 8.468-10.655 14.762Z"></path><circle cx="128" cy="113.668" r="23.13" fill="#00D8FF"></circle></svg>
